<?xml version="1.0" standalone="no"?>
<!DOCTYPE svg PUBLIC "-//W3C//DTD SVG 20010904//EN"
 "http://www.w3.org/TR/2001/REC-SVG-20010904/DTD/svg10.dtd">
<svg version="1.0" xmlns="http://www.w3.org/2000/svg"
 width="1500.000000pt" height="1500.000000pt" viewBox="0 0 1500.000000 1500.000000"
 preserveAspectRatio="xMidYMid meet">
<metadata>
Created by potrace 1.14, written by Peter Selinger 2001-2017
</metadata>
<g transform="translate(0.000000,1500.000000) scale(0.100000,-0.100000)"
fill="#000000" stroke="none">
<path d="M7337 14954 c-1 -1 -78 -5 -172 -8 -166 -7 -225 -10 -332 -21 -29 -3
-79 -7 -110 -11 -56 -5 -185 -21 -248 -30 -166 -23 -251 -37 -310 -49 -38 -8
-86 -17 -105 -20 -19 -3 -78 -15 -130 -27 -52 -11 -99 -21 -105 -22 -269 -54
-885 -249 -1140 -361 -16 -7 -59 -25 -95 -40 -128 -53 -261 -115 -421 -195
-283 -142 -646 -354 -854 -499 -155 -109 -370 -267 -444 -327 -271 -219 -416
-349 -646 -579 -140 -141 -277 -287 -356 -380 -19 -22 -40 -47 -48 -55 -8 -8
-57 -69 -110 -135 -53 -66 -98 -122 -101 -125 -8 -7 -139 -183 -190 -255 -155
-219 -382 -583 -476 -764 -279 -533 -432 -902 -588 -1416 -38 -127 -99 -354
-112 -418 -2 -10 -5 -26 -8 -35 -3 -9 -7 -28 -10 -42 -3 -14 -14 -70 -26 -125
-22 -102 -52 -270 -65 -360 -11 -70 -13 -85 -19 -125 -3 -19 -8 -57 -11 -85
-3 -27 -8 -63 -10 -80 -6 -39 -13 -111 -20 -205 -4 -41 -8 -93 -10 -115 -23
-232 -23 -818 0 -1095 2 -25 6 -78 10 -119 3 -40 7 -88 10 -105 2 -17 7 -58
10 -91 3 -33 7 -71 10 -85 2 -14 7 -47 10 -75 3 -27 17 -115 31 -195 13 -80
27 -161 30 -180 3 -19 15 -75 26 -125 10 -49 21 -101 24 -115 8 -42 74 -300
101 -395 14 -49 26 -94 28 -100 1 -5 5 -17 8 -25 3 -8 24 -73 47 -145 22 -71
49 -152 59 -180 11 -27 36 -95 56 -150 47 -125 126 -317 171 -413 19 -40 34
-75 34 -77 0 -18 221 -445 297 -573 24 -41 43 -75 43 -77 0 -16 234 -376 350
-538 137 -191 375 -496 420 -537 3 -3 18 -21 34 -40 57 -70 204 -228 346 -370
188 -188 252 -247 485 -449 17 -14 93 -76 170 -137 607 -482 1287 -866 2020
-1141 160 -60 479 -164 575 -189 8 -2 85 -22 170 -44 85 -22 166 -43 180 -45
14 -3 68 -14 120 -25 52 -12 103 -23 113 -25 31 -7 249 -44 292 -50 22 -3 56
-8 75 -11 19 -3 44 -8 55 -9 17 -3 107 -14 250 -30 22 -3 72 -7 110 -11 39 -3
90 -7 115 -9 273 -23 838 -23 1095 -1 22 2 76 7 120 10 44 4 96 8 115 11 66 7
135 16 165 19 99 13 350 52 445 71 41 8 90 17 109 20 19 3 37 7 40 9 3 2 23 7
43 10 123 19 551 137 790 217 370 123 894 351 1173 509 22 13 65 37 95 53 112
62 325 191 328 199 2 4 8 8 13 8 37 0 620 423 814 591 354 307 620 570 875
869 12 14 29 34 38 45 277 325 611 809 802 1160 24 44 57 105 73 135 126 229
296 604 402 891 79 212 210 626 229 725 2 10 11 44 20 74 8 30 17 66 20 80 2
14 16 75 30 137 14 61 32 149 40 195 8 46 17 92 19 103 6 24 18 97 22 128 1
12 10 78 19 147 9 69 19 145 22 170 2 25 6 59 9 75 20 143 38 492 38 750 0
204 -9 514 -17 565 -3 14 -7 66 -10 115 -3 50 -8 101 -10 115 -3 14 -7 57 -11
95 -3 39 -8 79 -10 90 -2 11 -7 40 -10 65 -3 25 -7 54 -9 65 -2 11 -7 43 -10
70 -4 28 -16 95 -26 150 -10 55 -21 116 -24 136 -3 19 -14 73 -25 120 -11 47
-22 96 -24 109 -10 52 -69 279 -107 411 -173 596 -420 1168 -748 1724 -169
286 -479 726 -675 956 -12 14 -44 52 -72 85 -165 194 -464 502 -655 676 -81
72 -246 213 -340 288 -24 19 -48 40 -54 45 -13 12 -172 131 -276 207 -135 98
-435 294 -565 369 -468 268 -880 457 -1355 621 -175 61 -265 88 -555 168 -79
21 -311 74 -425 96 -41 8 -86 16 -100 19 -13 2 -42 7 -64 11 -22 3 -43 7 -46
9 -3 1 -30 6 -61 9 -31 4 -67 9 -80 11 -35 7 -167 24 -234 30 -33 4 -71 8 -85
10 -14 3 -65 7 -115 10 -49 4 -100 8 -113 10 -60 10 -695 27 -705 19z"/>
</g>
</svg>
